<?xml version="1.0" standalone="no"?>
<!DOCTYPE svg PUBLIC "-//W3C//DTD SVG 20010904//EN"
 "http://www.w3.org/TR/2001/REC-SVG-20010904/DTD/svg10.dtd">
<svg version="1.0" xmlns="http://www.w3.org/2000/svg"
 width="512.000000pt" height="512.000000pt" viewBox="0 0 512.000000 512.000000"
 preserveAspectRatio="xMidYMid meet">
<metadata>
Created by potrace 1.11, written by Peter Selinger 2001-2013
</metadata>
<g transform="translate(0.000000,512.000000) scale(0.100000,-0.100000)"
fill="#000000" stroke="none">
<path d="M865 4793 c-140 -30 -234 -82 -359 -198 -64 -60 -131 -174 -161 -275
-19 -63 -20 -103 -20 -1285 l0 -1220 24 -69 c39 -114 121 -236 202 -303 19
-15 36 -30 39 -33 8 -10 103 -64 135 -79 87 -38 121 -43 338 -48 l217 -5 0
-414 c0 -454 0 -457 59 -506 37 -31 107 -45 151 -29 25 8 151 107 230 181 9 8
33 29 54 45 20 17 54 45 74 64 20 18 57 50 82 70 25 20 50 41 55 47 6 6 55 49
110 95 55 46 114 96 130 110 48 42 274 237 340 293 112 95 143 130 150 169 11
59 -3 107 -43 148 -65 65 -161 62 -237 -7 -22 -19 -58 -50 -79 -67 -22 -18
-44 -37 -50 -43 -14 -13 -366 -316 -515 -443 -30 -25 -84 -72 -120 -103 l-66
-57 -5 332 c-4 236 -9 338 -17 353 -20 35 -71 73 -106 79 -18 2 -162 6 -322 7
-281 3 -292 4 -343 27 -70 31 -134 104 -155 173 -14 47 -15 195 -16 1239 -1
1301 -4 1234 58 1321 48 68 185 134 219 105 13 -10 14 -9 8 1 -6 10 320 12
1661 10 l1668 -3 56 -26 c68 -32 103 -67 138 -139 l26 -55 0 -1215 0 -1215
-26 -55 c-33 -70 -69 -106 -139 -139 l-55 -26 -610 -2 c-335 -2 -625 -5 -643
-8 -43 -8 -98 -57 -112 -101 -26 -78 14 -170 87 -201 50 -20 1220 -19 1310 2
219 51 404 225 490 460 17 47 18 116 20 1265 2 990 0 1224 -11 1265 -44 166
-147 311 -286 404 -73 48 -91 57 -180 86 l-75 24 -1680 -1 c-924 0 -1689 -2
-1700 -5z"/>
<path d="M1375 3826 c-37 -17 -70 -52 -84 -89 -8 -20 -11 -245 -11 -707 l1
-678 22 -33 c37 -55 80 -78 142 -76 58 3 92 21 129 71 20 26 21 43 24 297 l3
269 319 0 319 0 3 -268 3 -269 28 -36 c37 -49 72 -65 134 -63 56 1 91 21 127
70 21 27 21 38 23 720 l3 693 -23 34 c-37 55 -80 78 -142 76 -58 -3 -92 -21
-129 -71 -20 -26 -21 -43 -24 -297 l-3 -269 -319 0 -319 0 -3 268 -3 269 -28
36 c-15 21 -40 43 -55 50 -37 18 -101 20 -137 3z"/>
<path d="M2995 3833 c-35 -9 -87 -55 -101 -89 -12 -28 -14 -151 -14 -713 l1
-679 22 -32 c38 -57 71 -75 137 -75 63 0 95 16 134 69 21 27 21 36 21 726 0
690 0 699 -21 726 -11 15 -32 36 -46 47 -26 19 -96 30 -133 20z"/>
<path d="M3635 3833 c-35 -9 -87 -55 -101 -90 -12 -28 -14 -112 -12 -478 3
-430 4 -444 24 -471 39 -52 70 -68 134 -69 63 0 95 16 134 69 21 27 21 38 21
486 0 448 0 459 -21 486 -11 15 -32 36 -46 47 -26 19 -96 30 -133 20z"/>
<path d="M3615 2546 c-41 -18 -83 -69 -91 -111 -21 -114 68 -208 181 -191 145
22 182 207 58 292 -36 24 -106 29 -148 10z"/>
</g>
</svg>
